<svg width="640" height="600" viewBox="0 0 640 600" fill="none" xmlns="http://www.w3.org/2000/svg">
<rect width="233.584" height="233.581" rx="12" transform="matrix(-0.37958 -0.925159 0.925155 -0.37959 409.9 354.767)" fill="#F2F6FF"/>
<rect width="166.514" height="166.512" rx="12" transform="matrix(0.344453 0.938804 -0.938801 0.34446 171.322 334)" fill="#F2F6FF"/>
<rect width="166.514" height="166.513" rx="12" transform="matrix(-0.604778 -0.796394 0.796386 -0.604789 379.354 295.369)" fill="#E5EEFF"/>
<path fill-rule="evenodd" clip-rule="evenodd" d="M170.414 444.345L176.311 442.249L160.463 433.536L165.083 451.021L168.543 445.807L172.686 451.109L174.557 449.647L170.414 444.345V444.345Z" fill="white"/>
<path d="M176.458 442.663L177.381 442.335L176.523 441.864L160.675 433.15L159.775 432.656L160.038 433.648L164.658 451.134L164.908 452.081L165.45 451.264L168.572 446.558L172.339 451.38L172.61 451.726L172.956 451.455L174.828 449.993L175.174 449.723L174.904 449.376L171.137 444.555L176.458 442.663Z" stroke="#1A1A1A" stroke-width="0.879648"/>
<path d="M92.5 144.5H555.5V468.5H92.5V144.5Z" fill="#F4F4F4" stroke="#E8E8E8"/>
<rect width="462" height="31" transform="translate(93 145)" fill="white"/>
<path fill-rule="evenodd" clip-rule="evenodd" d="M109.039 163.798H113.768V168.527H109.039V163.798Z" fill="#FF46FB"/>
<path fill-rule="evenodd" clip-rule="evenodd" d="M104.311 163.798H109.04V168.527H104.311V163.798Z" fill="#CA41FC"/>
<path fill-rule="evenodd" clip-rule="evenodd" d="M99.582 163.798H104.311V168.527H99.582V163.798Z" fill="#8B48FE"/>
<path fill-rule="evenodd" clip-rule="evenodd" d="M113.77 159.069H109.041V163.798H113.77V159.069Z" fill="#81E650"/>
<path fill-rule="evenodd" clip-rule="evenodd" d="M109.039 159.069H104.31V163.798H109.039V159.069Z" fill="#00D267"/>
<path fill-rule="evenodd" clip-rule="evenodd" d="M104.311 159.069H99.5815V163.798H104.311V159.069Z" fill="#00C0FF"/>
<path fill-rule="evenodd" clip-rule="evenodd" d="M109.039 154.34H113.768V159.069H109.039V154.34Z" fill="#FFD200"/>
<path fill-rule="evenodd" clip-rule="evenodd" d="M104.311 154.34H109.04V159.069H104.311V154.34Z" fill="#FF8E00"/>
<path fill-rule="evenodd" clip-rule="evenodd" d="M99.582 154.34H104.311V159.069H99.582V154.34Z" fill="#FF5400"/>
<path d="M121.288 165.144C120.76 165.144 120.248 165.044 119.752 164.844C119.264 164.644 118.832 164.36 118.456 163.992L119.272 163.044C119.552 163.308 119.872 163.524 120.232 163.692C120.592 163.852 120.952 163.932 121.312 163.932C121.76 163.932 122.1 163.84 122.332 163.656C122.564 163.472 122.68 163.228 122.68 162.924C122.68 162.764 122.648 162.628 122.584 162.516C122.528 162.404 122.444 162.308 122.332 162.228C122.228 162.14 122.1 162.06 121.948 161.988C121.804 161.916 121.644 161.844 121.468 161.772L120.388 161.304C120.196 161.224 120.004 161.124 119.812 161.004C119.628 160.884 119.46 160.74 119.308 160.572C119.156 160.404 119.032 160.208 118.936 159.984C118.848 159.76 118.804 159.504 118.804 159.216C118.804 158.904 118.868 158.616 118.996 158.352C119.132 158.08 119.316 157.844 119.548 157.644C119.78 157.444 120.056 157.288 120.376 157.176C120.704 157.064 121.06 157.008 121.444 157.008C121.9 157.008 122.34 157.1 122.764 157.284C123.188 157.46 123.552 157.7 123.856 158.004L123.148 158.892C122.892 158.684 122.628 158.52 122.356 158.4C122.084 158.28 121.78 158.22 121.444 158.22C121.068 158.22 120.768 158.304 120.544 158.472C120.32 158.632 120.208 158.856 120.208 159.144C120.208 159.296 120.24 159.428 120.304 159.54C120.376 159.644 120.468 159.74 120.58 159.828C120.7 159.908 120.836 159.984 120.988 160.056C121.14 160.12 121.296 160.184 121.456 160.248L122.524 160.692C122.756 160.788 122.968 160.9 123.16 161.028C123.352 161.156 123.516 161.304 123.652 161.472C123.796 161.64 123.908 161.836 123.988 162.06C124.068 162.276 124.108 162.528 124.108 162.816C124.108 163.136 124.044 163.436 123.916 163.716C123.788 163.996 123.6 164.244 123.352 164.46C123.112 164.668 122.816 164.836 122.464 164.964C122.12 165.084 121.728 165.144 121.288 165.144ZM125.415 165V159.108H126.555L126.651 159.912H126.699C126.947 159.648 127.215 159.424 127.503 159.24C127.799 159.056 128.131 158.964 128.499 158.964C128.931 158.964 129.275 159.056 129.531 159.24C129.795 159.424 129.995 159.684 130.131 160.02C130.411 159.716 130.703 159.464 131.007 159.264C131.311 159.064 131.651 158.964 132.027 158.964C132.651 158.964 133.111 159.168 133.407 159.576C133.703 159.976 133.851 160.552 133.851 161.304V165H132.459V161.484C132.459 160.996 132.383 160.652 132.231 160.452C132.087 160.252 131.863 160.152 131.559 160.152C131.191 160.152 130.779 160.396 130.323 160.884V165H128.943V161.484C128.943 160.996 128.867 160.652 128.715 160.452C128.571 160.252 128.343 160.152 128.031 160.152C127.663 160.152 127.251 160.396 126.795 160.884V165H125.415ZM136.956 165.144C136.436 165.144 136.016 164.988 135.696 164.676C135.376 164.356 135.216 163.936 135.216 163.416C135.216 163.104 135.28 162.828 135.408 162.588C135.544 162.34 135.752 162.128 136.032 161.952C136.32 161.776 136.68 161.628 137.112 161.508C137.552 161.388 138.076 161.296 138.684 161.232C138.676 161.08 138.652 160.936 138.612 160.8C138.58 160.656 138.52 160.532 138.432 160.428C138.352 160.316 138.244 160.232 138.108 160.176C137.972 160.112 137.804 160.08 137.604 160.08C137.316 160.08 137.032 160.136 136.752 160.248C136.48 160.36 136.212 160.496 135.948 160.656L135.444 159.732C135.772 159.524 136.14 159.344 136.548 159.192C136.956 159.04 137.396 158.964 137.868 158.964C138.604 158.964 139.152 159.184 139.512 159.624C139.88 160.056 140.064 160.684 140.064 161.508V165H138.924L138.828 164.352H138.78C138.516 164.576 138.232 164.764 137.928 164.916C137.632 165.068 137.308 165.144 136.956 165.144ZM137.4 164.064C137.64 164.064 137.856 164.008 138.048 163.896C138.248 163.784 138.46 163.624 138.684 163.416V162.096C138.284 162.144 137.948 162.208 137.676 162.288C137.404 162.368 137.184 162.46 137.016 162.564C136.848 162.66 136.728 162.772 136.656 162.9C136.584 163.028 136.548 163.164 136.548 163.308C136.548 163.572 136.628 163.764 136.788 163.884C136.948 164.004 137.152 164.064 137.4 164.064ZM143.06 165.144C142.564 165.144 142.216 164.996 142.016 164.7C141.816 164.404 141.716 164 141.716 163.488V156.528H143.096V163.56C143.096 163.728 143.128 163.848 143.192 163.92C143.256 163.984 143.324 164.016 143.396 164.016C143.428 164.016 143.456 164.016 143.48 164.016C143.512 164.016 143.556 164.008 143.612 163.992L143.792 165.024C143.608 165.104 143.364 165.144 143.06 165.144ZM146.318 165.144C145.822 165.144 145.474 164.996 145.274 164.7C145.074 164.404 144.974 164 144.974 163.488V156.528H146.354V163.56C146.354 163.728 146.386 163.848 146.45 163.92C146.514 163.984 146.582 164.016 146.654 164.016C146.686 164.016 146.714 164.016 146.738 164.016C146.77 164.016 146.814 164.008 146.87 163.992L147.05 165.024C146.866 165.104 146.622 165.144 146.318 165.144ZM148.231 167.328V159.108H149.371L149.467 159.732H149.515C149.763 159.524 150.039 159.344 150.343 159.192C150.647 159.04 150.963 158.964 151.291 158.964C151.659 158.964 151.983 159.036 152.263 159.18C152.551 159.316 152.795 159.516 152.995 159.78C153.195 160.044 153.347 160.36 153.451 160.728C153.555 161.096 153.607 161.508 153.607 161.964C153.607 162.468 153.535 162.92 153.391 163.32C153.255 163.712 153.071 164.044 152.839 164.316C152.607 164.58 152.339 164.784 152.035 164.928C151.731 165.072 151.415 165.144 151.087 165.144C150.831 165.144 150.575 165.088 150.319 164.976C150.063 164.864 149.815 164.704 149.575 164.496L149.611 165.48V167.328H148.231ZM150.799 164.004C151.191 164.004 151.519 163.836 151.783 163.5C152.047 163.156 152.179 162.648 152.179 161.976C152.179 161.384 152.079 160.924 151.879 160.596C151.679 160.268 151.355 160.104 150.907 160.104C150.491 160.104 150.059 160.324 149.611 160.764V163.512C149.827 163.696 150.035 163.824 150.235 163.896C150.435 163.968 150.623 164.004 150.799 164.004ZM157.069 165.144C156.325 165.144 155.733 164.876 155.293 164.34C154.861 163.796 154.645 163.036 154.645 162.06C154.645 161.58 154.713 161.148 154.849 160.764C154.993 160.38 155.181 160.056 155.413 159.792C155.645 159.528 155.909 159.324 156.205 159.18C156.509 159.036 156.821 158.964 157.141 158.964C157.477 158.964 157.761 159.024 157.993 159.144C158.225 159.256 158.457 159.412 158.689 159.612L158.641 158.664V156.528H160.021V165H158.881L158.785 164.364H158.737C158.521 164.58 158.269 164.764 157.981 164.916C157.693 165.068 157.389 165.144 157.069 165.144ZM157.405 164.004C157.845 164.004 158.257 163.784 158.641 163.344V160.596C158.433 160.412 158.229 160.284 158.029 160.212C157.837 160.14 157.641 160.104 157.441 160.104C157.057 160.104 156.733 160.272 156.469 160.608C156.205 160.944 156.073 161.424 156.073 162.048C156.073 162.688 156.185 163.176 156.409 163.512C156.641 163.84 156.973 164.004 157.405 164.004ZM162.018 165V160.2H161.226V159.168L162.018 159.108V158.496C162.018 158.192 162.054 157.912 162.126 157.656C162.198 157.392 162.314 157.168 162.474 156.984C162.634 156.792 162.834 156.644 163.074 156.54C163.322 156.436 163.622 156.384 163.974 156.384C164.182 156.384 164.378 156.404 164.562 156.444C164.754 156.484 164.918 156.532 165.054 156.588L164.79 157.62C164.574 157.524 164.358 157.476 164.142 157.476C163.646 157.476 163.398 157.808 163.398 158.472V159.108H164.55V160.2H163.398V165H162.018Z" fill="#1A1A1A"/>
<rect x="138.408" y="230.398" width="362.939" height="233.915" fill="white"/>
<path d="M169.393 266.754C169.393 265.183 170.666 263.909 172.238 263.909H398.601C400.172 263.909 401.446 265.183 401.446 266.754C401.446 268.325 400.172 269.599 398.601 269.599H172.238C170.666 269.599 169.393 268.325 169.393 266.754Z" fill="#E8E8E8"/>
<path d="M169.393 281.931C169.393 280.36 170.666 279.086 172.238 279.086H398.601C400.172 279.086 401.446 280.36 401.446 281.931C401.446 283.503 400.172 284.777 398.601 284.777H172.238C170.666 284.777 169.393 283.503 169.393 281.931Z" fill="#E8E8E8"/>
<path d="M169.393 298.372C169.393 296.8 170.666 295.526 172.238 295.526H354.34C355.911 295.526 357.185 296.8 357.185 298.372C357.185 299.943 355.911 301.217 354.34 301.217H172.238C170.666 301.217 169.393 299.943 169.393 298.372Z" fill="#E8E8E8"/>
<path d="M169.393 346.426C169.393 344.854 170.666 343.58 172.238 343.58H468.153C469.725 343.58 470.999 344.854 470.999 346.426C470.999 347.997 469.725 349.271 468.153 349.271H172.238C170.666 349.271 169.393 347.997 169.393 346.426Z" fill="#E8E8E8"/>
<path d="M169.393 359.703C169.393 358.131 170.666 356.858 172.238 356.858H455.507C457.079 356.858 458.353 358.131 458.353 359.703C458.353 361.274 457.079 362.548 455.507 362.548H172.238C170.666 362.548 169.393 361.274 169.393 359.703Z" fill="#E8E8E8"/>
<path d="M169.393 372.982C169.393 371.41 170.666 370.136 172.238 370.136H461.83C463.402 370.136 464.676 371.41 464.676 372.982C464.676 374.553 463.402 375.827 461.83 375.827H172.238C170.666 375.827 169.393 374.553 169.393 372.982Z" fill="#E8E8E8"/>
<path d="M169.393 386.261C169.393 384.689 170.666 383.415 172.238 383.415H461.83C463.402 383.415 464.676 384.689 464.676 386.261C464.676 387.832 463.402 389.106 461.83 389.106H172.238C170.666 389.106 169.393 387.832 169.393 386.261Z" fill="#E8E8E8"/>
<path d="M169.393 399.536C169.393 397.965 170.666 396.691 172.238 396.691H442.861C444.433 396.691 445.707 397.965 445.707 399.536C445.707 401.108 444.433 402.381 442.861 402.381H172.238C170.666 402.381 169.393 401.108 169.393 399.536Z" fill="#E8E8E8"/>
<path d="M169.393 412.815C169.393 411.244 170.666 409.97 172.238 409.97H442.861C444.433 409.97 445.707 411.244 445.707 412.815C445.707 414.386 444.433 415.66 442.861 415.66H172.238C170.666 415.66 169.393 414.386 169.393 412.815Z" fill="#E8E8E8"/>
<path d="M169.393 426.094C169.393 424.522 170.666 423.249 172.238 423.249H442.861C444.433 423.249 445.707 424.522 445.707 426.094C445.707 427.665 444.433 428.939 442.861 428.939H172.238C170.666 428.939 169.393 427.665 169.393 426.094Z" fill="#E8E8E8"/>
<path d="M169.393 439.373C169.393 437.801 170.666 436.527 172.238 436.527H442.861C444.433 436.527 445.707 437.801 445.707 439.373C445.707 440.944 444.433 442.218 442.861 442.218H172.238C170.666 442.218 169.393 440.944 169.393 439.373Z" fill="#E8E8E8"/>
<path fill-rule="evenodd" clip-rule="evenodd" d="M341 451L374.572 471.604L366.075 477.494L375 490.111L366.502 496L357.577 483.383L349.079 489.273L341 451Z" fill="#1A1A1A"/>
<rect x="412.32" y="262.032" width="63.5839" height="61.7275" rx="30.8637" fill="#CCDDFF"/>
<rect x="411.625" y="261.338" width="65.0383" height="63.0162" stroke="#0055FF" stroke-width="0.464116"/>
<path d="M410 259.713H413.713V263.426H410V259.713Z" fill="white"/>
<path d="M410 259.713V259.249H409.536V259.713H410ZM413.713 259.713H414.177V259.249H413.713V259.713ZM413.713 263.426V263.89H414.177V263.426H413.713ZM410 263.426H409.536V263.89H410V263.426ZM410 260.177H413.713V259.249H410V260.177ZM413.249 259.713V263.426H414.177V259.713H413.249ZM413.713 262.962H410V263.89H413.713V262.962ZM410.464 263.426V259.713H409.536V263.426H410.464Z" fill="#0055FF"/>
<path d="M410 322.287H413.713V326H410V322.287Z" fill="white"/>
<path d="M410 322.287V321.823H409.536V322.287H410ZM413.713 322.287H414.177V321.823H413.713V322.287ZM413.713 326V326.464H414.177V326H413.713ZM410 326H409.536V326.464H410V326ZM410 322.751H413.713V321.823H410V322.751ZM413.249 322.287V326H414.177V322.287H413.249ZM413.713 325.536H410V326.464H413.713V325.536ZM410.464 326V322.287H409.536V326H410.464Z" fill="#0055FF"/>
<path d="M442.287 322.287H446V326H442.287V322.287Z" fill="white"/>
<path d="M442.287 322.287V321.823H441.823V322.287H442.287ZM446 322.287H446.464V321.823H446V322.287ZM446 326V326.464H446.464V326H446ZM442.287 326H441.823V326.464H442.287V326ZM442.287 322.751H446V321.823H442.287V322.751ZM445.536 322.287V326H446.464V322.287H445.536ZM446 325.536H442.287V326.464H446V325.536ZM442.751 326V322.287H441.823V326H442.751Z" fill="#0055FF"/>
<path d="M442.287 259.713H446V263.426H442.287V259.713Z" fill="white"/>
<path d="M442.287 259.713V259.249H441.823V259.713H442.287ZM446 259.713H446.464V259.249H446V259.713ZM446 263.426V263.89H446.464V263.426H446ZM442.287 263.426H441.823V263.89H442.287V263.426ZM442.287 260.177H446V259.249H442.287V260.177ZM445.536 259.713V263.426H446.464V259.713H445.536ZM446 262.962H442.287V263.89H446V262.962ZM442.751 263.426V259.713H441.823V263.426H442.751Z" fill="#0055FF"/>
<path d="M474.574 291H478.287V294.713H474.574V291Z" fill="white"/>
<path d="M474.574 291V290.536H474.11V291H474.574ZM478.287 291H478.751V290.536H478.287V291ZM478.287 294.713V295.177H478.751V294.713H478.287ZM474.574 294.713H474.11V295.177H474.574V294.713ZM474.574 291.464H478.287V290.536H474.574V291.464ZM477.823 291V294.713H478.751V291H477.823ZM478.287 294.249H474.574V295.177H478.287V294.249ZM475.038 294.713V291H474.11V294.713H475.038Z" fill="#0055FF"/>
<path d="M410 291H413.713V294.713H410V291Z" fill="white"/>
<path d="M410 291V290.536H409.536V291H410ZM413.713 291H414.177V290.536H413.713V291ZM413.713 294.713V295.177H414.177V294.713H413.713ZM410 294.713H409.536V295.177H410V294.713ZM410 291.464H413.713V290.536H410V291.464ZM413.249 291V294.713H414.177V291H413.249ZM413.713 294.249H410V295.177H413.713V294.249ZM410.464 294.713V291H409.536V294.713H410.464Z" fill="#0055FF"/>
<path d="M474.574 322.287H478.287V326H474.574V322.287Z" fill="white"/>
<path d="M474.574 322.287V321.823H474.11V322.287H474.574ZM478.287 322.287H478.751V321.823H478.287V322.287ZM478.287 326V326.464H478.751V326H478.287ZM474.574 326H474.11V326.464H474.574V326ZM474.574 322.751H478.287V321.823H474.574V322.751ZM477.823 322.287V326H478.751V322.287H477.823ZM478.287 325.536H474.574V326.464H478.287V325.536ZM475.038 326V322.287H474.11V326H475.038Z" fill="#0055FF"/>
<path d="M474.574 259.713H478.287V263.426H474.574V259.713Z" fill="white"/>
<path d="M474.574 259.713V259.249H474.11V259.713H474.574ZM478.287 259.713H478.751V259.249H478.287V259.713ZM478.287 263.426V263.89H478.751V263.426H478.287ZM474.574 263.426H474.11V263.89H474.574V263.426ZM474.574 260.177H478.287V259.249H474.574V260.177ZM477.823 259.713V263.426H478.751V259.713H477.823ZM478.287 262.962H474.574V263.89H478.287V262.962ZM475.038 263.426V259.713H474.11V263.426H475.038Z" fill="#0055FF"/>
<rect x="173.004" y="309.838" width="39.0383" height="26.0161" stroke="#0055FF" stroke-width="0.464116"/>
<path d="M171.379 308.213H175.092V311.926H171.379V308.213Z" fill="white"/>
<path d="M171.379 308.213V307.749H170.915V308.213H171.379ZM175.092 308.213H175.556V307.749H175.092V308.213ZM175.092 311.926V312.39H175.556V311.926H175.092ZM171.379 311.926H170.915V312.39H171.379V311.926ZM171.379 308.677H175.092V307.749H171.379V308.677ZM174.628 308.213V311.926H175.556V308.213H174.628ZM175.092 311.462H171.379V312.39H175.092V311.462ZM171.843 311.926V308.213H170.915V311.926H171.843Z" fill="#0055FF"/>
<path d="M171.379 333.787H175.092V337.5H171.379V333.787Z" fill="white"/>
<path d="M171.379 333.787V333.323H170.915V333.787H171.379ZM175.092 333.787H175.556V333.323H175.092V333.787ZM175.092 337.5V337.964H175.556V337.5H175.092ZM171.379 337.5H170.915V337.964H171.379V337.5ZM171.379 334.251H175.092V333.323H171.379V334.251ZM174.628 333.787V337.5H175.556V333.787H174.628ZM175.092 337.036H171.379V337.964H175.092V337.036ZM171.843 337.5V333.787H170.915V337.5H171.843Z" fill="#0055FF"/>
<path d="M190.666 333.787H194.379V337.5H190.666V333.787Z" fill="white"/>
<path d="M190.666 333.787V333.323H190.202V333.787H190.666ZM194.379 333.787H194.843V333.323H194.379V333.787ZM194.379 337.5V337.964H194.843V337.5H194.379ZM190.666 337.5H190.202V337.964H190.666V337.5ZM190.666 334.251H194.379V333.323H190.666V334.251ZM193.915 333.787V337.5H194.843V333.787H193.915ZM194.379 337.036H190.666V337.964H194.379V337.036ZM191.13 337.5V333.787H190.202V337.5H191.13Z" fill="#0055FF"/>
<path d="M190.666 308.213H194.379V311.926H190.666V308.213Z" fill="white"/>
<path d="M190.666 308.213V307.749H190.202V308.213H190.666ZM194.379 308.213H194.843V307.749H194.379V308.213ZM194.379 311.926V312.39H194.843V311.926H194.379ZM190.666 311.926H190.202V312.39H190.666V311.926ZM190.666 308.677H194.379V307.749H190.666V308.677ZM193.915 308.213V311.926H194.843V308.213H193.915ZM194.379 311.462H190.666V312.39H194.379V311.462ZM191.13 311.926V308.213H190.202V311.926H191.13Z" fill="#0055FF"/>
<path d="M209.953 321.5H213.666V325.213H209.953V321.5Z" fill="white"/>
<path d="M209.953 321.5V321.036H209.489V321.5H209.953ZM213.666 321.5H214.13V321.036H213.666V321.5ZM213.666 325.213V325.677H214.13V325.213H213.666ZM209.953 325.213H209.489V325.677H209.953V325.213ZM209.953 321.964H213.666V321.036H209.953V321.964ZM213.202 321.5V325.213H214.13V321.5H213.202ZM213.666 324.749H209.953V325.677H213.666V324.749ZM210.417 325.213V321.5H209.489V325.213H210.417Z" fill="#0055FF"/>
<path d="M171.379 321.5H175.092V325.213H171.379V321.5Z" fill="white"/>
<path d="M171.379 321.5V321.036H170.915V321.5H171.379ZM175.092 321.5H175.556V321.036H175.092V321.5ZM175.092 325.213V325.677H175.556V325.213H175.092ZM171.379 325.213H170.915V325.677H171.379V325.213ZM171.379 321.964H175.092V321.036H171.379V321.964ZM174.628 321.5V325.213H175.556V321.5H174.628ZM175.092 324.749H171.379V325.677H175.092V324.749ZM171.843 325.213V321.5H170.915V325.213H171.843Z" fill="#0055FF"/>
<path d="M209.953 333.787H213.666V337.5H209.953V333.787Z" fill="white"/>
<path d="M209.953 333.787V333.323H209.489V333.787H209.953ZM213.666 333.787H214.13V333.323H213.666V333.787ZM213.666 337.5V337.964H214.13V337.5H213.666ZM209.953 337.5H209.489V337.964H209.953V337.5ZM209.953 334.251H213.666V333.323H209.953V334.251ZM213.202 333.787V337.5H214.13V333.787H213.202ZM213.666 337.036H209.953V337.964H213.666V337.036ZM210.417 337.5V333.787H209.489V337.5H210.417Z" fill="#0055FF"/>
<path d="M209.953 308.213H213.666V311.926H209.953V308.213Z" fill="white"/>
<path d="M209.953 308.213V307.749H209.489V308.213H209.953ZM213.666 308.213H214.13V307.749H213.666V308.213ZM213.666 311.926V312.39H214.13V311.926H213.666ZM209.953 311.926H209.489V312.39H209.953V311.926ZM209.953 308.677H213.666V307.749H209.953V308.677ZM213.202 308.213V311.926H214.13V308.213H213.202ZM213.666 311.462H209.953V312.39H213.666V311.462ZM210.417 311.926V308.213H209.489V311.926H210.417Z" fill="#0055FF"/>
<path d="M182.361 316.386C182.346 316.854 182.339 317.329 182.339 317.811C182.339 318.287 182.339 318.769 182.339 319.26V319.805C182.339 320.288 182.339 320.767 182.339 321.242C182.339 321.717 182.346 322.196 182.361 322.679L183.386 322.802V323.258H180.245V322.802L181.269 322.679C181.284 322.219 181.292 321.747 181.292 321.265C181.292 320.782 181.292 320.262 181.292 319.705H177.66C177.66 320.255 177.66 320.771 177.66 321.253C177.66 321.736 177.668 322.211 177.683 322.679L178.719 322.802V323.258H175.566V322.802L176.591 322.679C176.606 322.211 176.613 321.74 176.613 321.265C176.613 320.782 176.613 320.295 176.613 319.805V319.26C176.613 318.777 176.613 318.298 176.613 317.823C176.613 317.347 176.606 316.868 176.591 316.386L175.566 316.263V315.807H178.719V316.263L177.683 316.386C177.668 316.846 177.66 317.31 177.66 317.778C177.66 318.238 177.66 318.706 177.66 319.182H181.292C181.292 318.714 181.292 318.25 181.292 317.789C181.292 317.321 181.284 316.854 181.269 316.386L180.245 316.263V315.807H183.386V316.263L182.361 316.386Z" fill="#333333"/>
<path d="M187.457 320.084C187.724 320.084 187.903 320.028 187.992 319.917C188.081 319.805 188.125 319.668 188.125 319.505C188.125 319.349 188.092 319.2 188.025 319.059C187.966 318.911 187.88 318.781 187.769 318.669C187.665 318.558 187.539 318.469 187.39 318.402C187.249 318.335 187.093 318.302 186.922 318.302C186.767 318.302 186.603 318.335 186.432 318.402C186.269 318.461 186.117 318.565 185.976 318.714C185.842 318.855 185.723 319.04 185.619 319.271C185.523 319.493 185.46 319.764 185.43 320.084H187.457ZM185.408 320.563C185.422 321.253 185.593 321.784 185.92 322.156C186.247 322.527 186.677 322.713 187.212 322.713C187.569 322.713 187.866 322.638 188.103 322.49C188.341 322.341 188.56 322.148 188.76 321.911L189.028 322.122C188.835 322.523 188.556 322.843 188.192 323.08C187.836 323.31 187.401 323.425 186.889 323.425C186.51 323.425 186.169 323.362 185.864 323.236C185.56 323.11 185.3 322.928 185.085 322.69C184.869 322.445 184.702 322.152 184.583 321.81C184.465 321.469 184.405 321.086 184.405 320.663C184.405 320.24 184.472 319.854 184.606 319.505C184.739 319.148 184.921 318.844 185.151 318.591C185.389 318.339 185.664 318.142 185.976 318.001C186.288 317.86 186.618 317.789 186.967 317.789C187.257 317.789 187.528 317.837 187.78 317.934C188.04 318.031 188.263 318.172 188.449 318.357C188.634 318.543 188.779 318.769 188.883 319.037C188.994 319.304 189.05 319.605 189.05 319.939C189.05 320.065 189.043 320.18 189.028 320.284C189.013 320.388 188.994 320.481 188.972 320.563H185.408Z" fill="#333333"/>
<path d="M192.704 322.857V323.258H189.963V322.857L190.843 322.701C190.851 322.397 190.854 322.1 190.854 321.81C190.862 321.513 190.866 321.216 190.866 320.919V316.141L189.952 316.029V315.639L191.69 315.138L191.846 315.227L191.801 316.809V320.919C191.801 321.216 191.801 321.513 191.801 321.81C191.809 322.107 191.816 322.404 191.824 322.701L192.704 322.857Z" fill="#333333"/>
<path d="M196.233 322.857V323.258H193.493V322.857L194.373 322.701C194.38 322.397 194.384 322.1 194.384 321.81C194.392 321.513 194.395 321.216 194.395 320.919V316.141L193.482 316.029V315.639L195.22 315.138L195.375 315.227L195.331 316.809V320.919C195.331 321.216 195.331 321.513 195.331 321.81C195.338 322.107 195.346 322.404 195.353 322.701L196.233 322.857Z" fill="#333333"/>
<path d="M199.796 318.302C199.306 318.302 198.931 318.502 198.671 318.903C198.411 319.297 198.281 319.872 198.281 320.63C198.281 321.38 198.411 321.951 198.671 322.345C198.931 322.731 199.306 322.924 199.796 322.924C200.279 322.924 200.65 322.731 200.91 322.345C201.17 321.951 201.3 321.38 201.3 320.63C201.3 319.872 201.17 319.297 200.91 318.903C200.65 318.502 200.279 318.302 199.796 318.302ZM199.796 317.789C200.115 317.789 200.427 317.852 200.732 317.979C201.044 318.097 201.318 318.279 201.556 318.524C201.794 318.762 201.987 319.059 202.135 319.415C202.284 319.764 202.358 320.169 202.358 320.63C202.358 321.09 202.284 321.495 202.135 321.844C201.994 322.193 201.801 322.486 201.556 322.724C201.318 322.954 201.044 323.128 200.732 323.247C200.427 323.366 200.115 323.425 199.796 323.425C199.469 323.425 199.15 323.366 198.838 323.247C198.534 323.128 198.263 322.954 198.025 322.724C197.787 322.486 197.594 322.193 197.446 321.844C197.305 321.495 197.234 321.09 197.234 320.63C197.234 320.169 197.305 319.764 197.446 319.415C197.594 319.059 197.787 318.762 198.025 318.524C198.27 318.279 198.545 318.097 198.849 317.979C199.154 317.852 199.469 317.789 199.796 317.789Z" fill="#333333"/>
<path d="M204.684 323.425C204.484 323.425 204.313 323.355 204.172 323.214C204.031 323.065 203.96 322.894 203.96 322.701C203.96 322.508 204.031 322.341 204.172 322.2C204.313 322.052 204.484 321.977 204.684 321.977C204.885 321.977 205.052 322.052 205.185 322.2C205.327 322.341 205.397 322.508 205.397 322.701C205.397 322.894 205.327 323.065 205.185 323.214C205.052 323.355 204.885 323.425 204.684 323.425ZM204.684 315.639C204.877 315.639 205.029 315.695 205.141 315.807C205.26 315.918 205.319 316.096 205.319 316.341C205.319 316.549 205.293 316.906 205.241 317.41C205.189 317.915 205.122 318.558 205.041 319.338L204.885 320.852H204.473L204.328 319.338C204.246 318.558 204.175 317.915 204.116 317.41C204.064 316.906 204.038 316.549 204.038 316.341C204.038 316.096 204.098 315.918 204.216 315.807C204.335 315.695 204.491 315.639 204.684 315.639Z" fill="#333333"/>
<rect x="260.242" y="393.783" width="96.0383" height="38.0162" stroke="#0055FF" stroke-width="0.464116"/>
<path d="M258.617 392.159H262.33V395.872H258.617V392.159Z" fill="white"/>
<path d="M258.617 392.159V391.695H258.153V392.159H258.617ZM262.33 392.159H262.794V391.695H262.33V392.159ZM262.33 395.872V396.336H262.794V395.872H262.33ZM258.617 395.872H258.153V396.336H258.617V395.872ZM258.617 392.623H262.33V391.695H258.617V392.623ZM261.866 392.159V395.872H262.794V392.159H261.866ZM262.33 395.408H258.617V396.336H262.33V395.408ZM259.081 395.872V392.159H258.153V395.872H259.081Z" fill="#0055FF"/>
<path d="M258.617 429.733H262.33V433.446H258.617V429.733Z" fill="white"/>
<path d="M258.617 429.733V429.269H258.153V429.733H258.617ZM262.33 429.733H262.794V429.269H262.33V429.733ZM262.33 433.446V433.91H262.794V433.446H262.33ZM258.617 433.446H258.153V433.91H258.617V433.446ZM258.617 430.197H262.33V429.269H258.617V430.197ZM261.866 429.733V433.446H262.794V429.733H261.866ZM262.33 432.982H258.617V433.91H262.33V432.982ZM259.081 433.446V429.733H258.153V433.446H259.081Z" fill="#0055FF"/>
<path d="M305.904 429.733H309.617V433.446H305.904V429.733Z" fill="white"/>
<path d="M305.904 429.733V429.269H305.44V429.733H305.904ZM309.617 429.733H310.081V429.269H309.617V429.733ZM309.617 433.446V433.91H310.081V433.446H309.617ZM305.904 433.446H305.44V433.91H305.904V433.446ZM305.904 430.197H309.617V429.269H305.904V430.197ZM309.153 429.733V433.446H310.081V429.733H309.153ZM309.617 432.982H305.904V433.91H309.617V432.982ZM306.368 433.446V429.733H305.44V433.446H306.368Z" fill="#0055FF"/>
<path d="M305.904 392.159H309.617V395.872H305.904V392.159Z" fill="white"/>
<path d="M305.904 392.159V391.695H305.44V392.159H305.904ZM309.617 392.159H310.081V391.695H309.617V392.159ZM309.617 395.872V396.336H310.081V395.872H309.617ZM305.904 395.872H305.44V396.336H305.904V395.872ZM305.904 392.623H309.617V391.695H305.904V392.623ZM309.153 392.159V395.872H310.081V392.159H309.153ZM309.617 395.408H305.904V396.336H309.617V395.408ZM306.368 395.872V392.159H305.44V395.872H306.368Z" fill="#0055FF"/>
<path d="M354.191 411.446H357.904V415.159H354.191V411.446Z" fill="white"/>
<path d="M354.191 411.446V410.982H353.727V411.446H354.191ZM357.904 411.446H358.368V410.982H357.904V411.446ZM357.904 415.159V415.623H358.368V415.159H357.904ZM354.191 415.159H353.727V415.623H354.191V415.159ZM354.191 411.91H357.904V410.982H354.191V411.91ZM357.44 411.446V415.159H358.368V411.446H357.44ZM357.904 414.695H354.191V415.623H357.904V414.695ZM354.656 415.159V411.446H353.727V415.159H354.656Z" fill="#0055FF"/>
<path d="M258.617 411.446H262.33V415.159H258.617V411.446Z" fill="white"/>
<path d="M258.617 411.446V410.982H258.153V411.446H258.617ZM262.33 411.446H262.794V410.982H262.33V411.446ZM262.33 415.159V415.623H262.794V415.159H262.33ZM258.617 415.159H258.153V415.623H258.617V415.159ZM258.617 411.91H262.33V410.982H258.617V411.91ZM261.866 411.446V415.159H262.794V411.446H261.866ZM262.33 414.695H258.617V415.623H262.33V414.695ZM259.081 415.159V411.446H258.153V415.159H259.081Z" fill="#0055FF"/>
<path d="M354.191 429.733H357.904V433.446H354.191V429.733Z" fill="white"/>
<path d="M354.191 429.733V429.269H353.727V429.733H354.191ZM357.904 429.733H358.368V429.269H357.904V429.733ZM357.904 433.446V433.91H358.368V433.446H357.904ZM354.191 433.446H353.727V433.91H354.191V433.446ZM354.191 430.197H357.904V429.269H354.191V430.197ZM357.44 429.733V433.446H358.368V429.733H357.44ZM357.904 432.982H354.191V433.91H357.904V432.982ZM354.656 433.446V429.733H353.727V433.446H354.656Z" fill="#0055FF"/>
<path d="M354.191 392.159H357.904V395.872H354.191V392.159Z" fill="white"/>
<path d="M354.191 392.159V391.695H353.727V392.159H354.191ZM357.904 392.159H358.368V391.695H357.904V392.159ZM357.904 395.872V396.336H358.368V395.872H357.904ZM354.191 395.872H353.727V396.336H354.191V395.872ZM354.191 392.623H357.904V391.695H354.191V392.623ZM357.44 392.159V395.872H358.368V392.159H357.44ZM357.904 395.408H354.191V396.336H357.904V395.408ZM354.656 395.872V392.159H353.727V395.872H354.656Z" fill="#0055FF"/>
<path fill-rule="evenodd" clip-rule="evenodd" d="M341.435 396.271C337.514 397.18 333.698 398.674 330.82 400.102C329.357 400.827 327.791 401.64 326.255 402.563C326.793 404.578 326.878 406.892 326.832 409.182C326.798 410.901 325.936 413.714 324.474 415.817C323.739 416.873 322.826 417.79 321.747 418.287C320.647 418.792 319.405 418.845 318.085 418.216C316.641 417.528 316.237 415.909 316.234 414.429C316.231 412.921 316.636 411.343 317.046 410.422C318.605 406.914 321.811 404.236 325.161 402.145C324.731 400.866 324.08 399.786 323.119 398.98C322.077 398.107 320.63 397.521 318.603 397.389C314.471 397.12 310.171 398.212 306.302 400.22C311.594 403.899 313.173 411.063 313.34 417.152C313.428 420.385 312.636 423.74 310.85 426.307C309.052 428.89 306.256 430.658 302.41 430.68C300.002 430.695 298.176 429.433 296.807 427.74C295.619 426.27 294.749 424.445 294.108 422.755C292.558 424.426 290.456 426.019 288.139 427.054C285.653 428.165 282.876 428.651 280.258 427.842C278.555 427.316 277.472 426.021 276.837 424.393C276.206 422.775 276.001 420.793 276.056 418.789C276.165 414.792 277.314 410.536 278.42 408.571C280.485 404.903 283.731 401.938 287.508 400.032C286.49 399.729 285.403 399.523 284.254 399.43C274.251 398.617 265.173 402.345 261.373 411.988C261.279 412.226 261.009 412.343 260.771 412.249C260.532 412.155 260.415 411.886 260.509 411.647C264.505 401.508 274.058 397.67 284.329 398.504C285.907 398.633 287.378 398.963 288.729 399.461C293.009 397.614 297.871 397.092 302.448 398.406C303.527 398.716 304.509 399.135 305.4 399.648C309.509 397.418 314.16 396.17 318.663 396.463C320.845 396.605 322.493 397.243 323.716 398.269C324.786 399.166 325.5 400.334 325.972 401.651C327.476 400.757 328.997 399.97 330.408 399.27C333.339 397.816 337.223 396.294 341.225 395.367C345.218 394.441 349.379 394.094 352.836 395.041C353.616 395.254 354.208 395.764 354.648 396.347C355.087 396.93 355.392 397.609 355.596 398.215C355.678 398.458 355.548 398.721 355.305 398.803C355.062 398.885 354.799 398.754 354.717 398.512C354.532 397.964 354.266 397.384 353.906 396.906C353.547 396.43 353.113 396.079 352.591 395.936C349.349 395.049 345.365 395.36 341.435 396.271ZM304.449 400.187C303.756 399.831 303.005 399.532 302.192 399.298C298.143 398.136 293.836 398.481 289.943 399.969C293.074 401.442 295.436 403.867 296.812 406.732C298.87 404.179 301.506 401.928 304.449 400.187ZM296.171 407.562C294.818 404.463 292.251 401.859 288.754 400.465C284.775 402.265 281.345 405.268 279.229 409.027C278.215 410.827 277.09 414.925 276.984 418.815C276.931 420.754 277.133 422.598 277.702 424.056C278.266 425.504 279.175 426.536 280.532 426.956C282.867 427.677 285.404 427.26 287.761 426.207C290.116 425.154 292.248 423.485 293.741 421.775C293.744 421.772 293.747 421.768 293.75 421.765C293.652 421.478 293.56 421.198 293.474 420.928C292.091 416.576 292.935 412.455 295.388 408.689C295.637 408.308 295.898 407.932 296.171 407.562ZM294.444 420.911C294.415 420.822 294.386 420.734 294.359 420.646C293.073 416.601 293.84 412.766 296.166 409.196C296.297 408.994 296.433 408.794 296.572 408.596C297.896 412.5 297.371 417.036 294.444 420.911ZM294.802 421.958C298.41 417.537 298.985 412.183 297.232 407.698C299.359 404.947 302.192 402.527 305.379 400.721C310.591 404.039 312.242 410.976 312.412 417.177C312.496 420.258 311.737 423.407 310.088 425.777C308.45 428.13 305.927 429.732 302.405 429.752C300.37 429.764 298.787 428.713 297.529 427.156C296.321 425.662 295.444 423.736 294.802 421.958ZM325.427 403.073C322.218 405.108 319.307 407.62 317.894 410.799C317.534 411.609 317.159 413.058 317.162 414.428C317.165 415.826 317.553 416.934 318.484 417.378C319.551 417.887 320.505 417.836 321.359 417.443C322.233 417.042 323.03 416.267 323.712 415.287C325.081 413.319 325.874 410.681 325.904 409.163C325.948 406.998 325.869 404.894 325.427 403.073Z" fill="#F23030"/>
<path d="M570.6 48.4V42H567.4V48.4H561V51.6H567.4V58H570.6V51.6H577L577 48.4H570.6Z" fill="#FFB700"/>
<path d="M51.6 135.4V129H48.4V135.4H42V138.6H48.4V145H51.6V138.6H58L58 135.4H51.6Z" fill="#FFB700"/>
<path fill-rule="evenodd" clip-rule="evenodd" d="M88 97C88 101.418 84.4183 105 80 105C75.5817 105 72 101.418 72 97C72 92.5817 75.5817 89 80 89C84.4183 89 88 92.5817 88 97ZM75.5565 96.9999C75.5565 99.4545 77.5463 101.444 80.0009 101.444C82.4555 101.444 84.4454 99.4545 84.4454 96.9999C84.4454 94.5453 82.4555 92.5554 80.0009 92.5554C77.5463 92.5554 75.5565 94.5453 75.5565 96.9999Z" fill="#FF5975"/>
<path fill-rule="evenodd" clip-rule="evenodd" d="M210 548C210 552.418 206.418 556 202 556C197.582 556 194 552.418 194 548C194 543.582 197.582 540 202 540C206.418 540 210 543.582 210 548ZM197.556 548C197.556 550.454 199.546 552.444 202.001 552.444C204.456 552.444 206.445 550.454 206.445 548C206.445 545.545 204.456 543.555 202.001 543.555C199.546 543.555 197.556 545.545 197.556 548Z" fill="#0FC0C5"/>
<path fill-rule="evenodd" clip-rule="evenodd" d="M236.516 523.011C235.827 522.322 235.827 521.206 236.516 520.517C237.205 519.828 238.322 519.828 239.011 520.517L242.753 524.259C243.442 524.947 243.442 526.064 242.753 526.753C242.064 527.442 240.947 527.442 240.258 526.753L236.516 523.011ZM245.247 531.742C244.558 531.053 244.558 529.936 245.247 529.247C245.936 528.558 247.052 528.558 247.741 529.247L251.483 532.989C252.172 533.678 252.172 534.795 251.483 535.484C250.794 536.172 249.678 536.172 248.989 535.484L245.247 531.742ZM236.516 535.484C237.205 536.172 238.322 536.172 239.011 535.484L242.753 531.742C243.442 531.053 243.442 529.936 242.753 529.247C242.064 528.558 240.947 528.558 240.258 529.247L236.516 532.989C235.827 533.678 235.827 534.795 236.516 535.484ZM247.738 526.755C247.049 527.443 245.932 527.443 245.243 526.755C244.554 526.066 244.554 524.949 245.243 524.26L248.985 520.518C249.674 519.829 250.791 519.829 251.48 520.518C252.168 521.207 252.168 522.324 251.48 523.013L247.738 526.755Z" fill="#FF5975"/>
<path fill-rule="evenodd" clip-rule="evenodd" d="M593.516 82.0113C592.827 81.3224 592.827 80.2055 593.516 79.5167C594.205 78.8278 595.322 78.8278 596.011 79.5167L599.753 83.2586C600.442 83.9475 600.442 85.0643 599.753 85.7532C599.064 86.4421 597.947 86.4421 597.258 85.7532L593.516 82.0113ZM602.247 90.7416C601.558 90.0528 601.558 88.9359 602.247 88.247C602.936 87.5581 604.052 87.5581 604.741 88.247L608.483 91.9889C609.172 92.6778 609.172 93.7947 608.483 94.4836C607.794 95.1724 606.678 95.1724 605.989 94.4836L602.247 90.7416ZM593.516 94.4836C594.205 95.1724 595.322 95.1724 596.011 94.4836L599.753 90.7416C600.442 90.0528 600.442 88.9359 599.753 88.247C599.064 87.5581 597.947 87.5581 597.258 88.247L593.516 91.9889C592.827 92.6778 592.827 93.7947 593.516 94.4836ZM604.738 85.7546C604.049 86.4435 602.932 86.4435 602.243 85.7546C601.554 85.0658 601.554 83.9489 602.243 83.26L605.985 79.5181C606.674 78.8292 607.791 78.8292 608.48 79.5181C609.168 80.207 609.168 81.3238 608.48 82.0127L604.738 85.7546Z" fill="#0FC0C5"/>
<path d="M476 500C476 497.791 477.791 496 480 496H504C506.209 496 508 497.791 508 500V524C508 526.209 506.209 528 504 528H480C477.791 528 476 526.209 476 524V500Z" fill="#F23030"/>
<path fill-rule="evenodd" clip-rule="evenodd" d="M492 505.25L483 503L485.25 512L483 521L492 518.75L501 521L498.75 512L501 503L492 505.25ZM499.626 504.374L492 506.281L484.374 504.374L486.281 512L484.374 519.626L492 517.719L499.626 519.626L497.719 512L499.626 504.374Z" fill="white"/>
<path d="M532 446C532 442.686 534.686 440 538 440H574C577.314 440 580 442.686 580 446V482C580 485.314 577.314 488 574 488H538C534.686 488 532 485.314 532 482V446Z" fill="#3D99F5"/>
<path d="M566.631 477.5L574 450.5H568.09L563.599 469.105H563.522L558.84 450.5H553.198L548.439 468.878H548.362L544.026 450.5H538L545.254 477.5H551.356L555.923 459.122H556L560.644 477.5H566.631Z" fill="white"/>
<path d="M485 410C485 407.791 486.791 406 489 406H513C515.209 406 517 407.791 517 410V434C517 436.209 515.209 438 513 438H489C486.791 438 485 436.209 485 434V410Z" fill="#FFB700"/>
<path fill-rule="evenodd" clip-rule="evenodd" d="M494.333 416L503.667 425.297L507.606 421.373L517 429.547V433L507.727 425.008L503.667 429.053L494.333 419.757L485 429.016V425.297L494.333 416Z" fill="white"/>
<circle cx="510" cy="413" r="4" fill="white"/>
<path d="M61 275C61 272.791 62.7909 271 65 271H105C107.209 271 109 272.791 109 275V315C109 317.209 107.209 319 105 319H65C62.7909 319 61 317.209 61 315V275Z" fill="#E667E6"/>
<path fill-rule="evenodd" clip-rule="evenodd" d="M85 311.5L97 292.441L95.5 284.5H74.6099L73 292.441L85 311.5ZM85 308.685L95.4167 292.141L94.2568 286H75.8363L74.5895 292.15L85 308.685Z" fill="white"/>
<path fill-rule="evenodd" clip-rule="evenodd" d="M84.25 309.25V297.448H85.75V309.25H84.25Z" fill="white"/>
<path fill-rule="evenodd" clip-rule="evenodd" d="M71.5 278.5L74.5 286H95.5L98.5 278.5H71.5ZM73.7065 279.994L75.5114 284.506H94.4886L96.2935 279.994H73.7065Z" fill="white"/>
<path fill-rule="evenodd" clip-rule="evenodd" d="M85 289.75C82.9289 289.75 81.25 291.429 81.25 293.5C81.25 295.571 82.9289 297.25 85 297.25C87.0711 297.25 88.75 295.571 88.75 293.5C88.75 291.429 87.0711 289.75 85 289.75ZM79.75 293.5C79.75 290.601 82.1005 288.25 85 288.25C87.8995 288.25 90.25 290.601 90.25 293.5C90.25 296.399 87.8995 298.75 85 298.75C82.1005 298.75 79.75 296.399 79.75 293.5Z" fill="white"/>
<path d="M202 83C202 80.7909 203.791 79 206 79H246C248.209 79 250 80.7909 250 83V123C250 125.209 248.209 127 246 127H206C203.791 127 202 125.209 202 123V83Z" fill="#0FC0C5"/>
<path fill-rule="evenodd" clip-rule="evenodd" d="M224.5 99.6667L236.167 88L239.5 91.3333L227.833 103H224.5V99.6667Z" fill="white"/>
<path fill-rule="evenodd" clip-rule="evenodd" d="M212.5 89.5H232V91H214V115H233.5V100H235V116.5H212.5V89.5Z" fill="white"/>
<path fill-rule="evenodd" clip-rule="evenodd" d="M223 104.5H215.5V103H223V104.5Z" fill="white"/>
<path fill-rule="evenodd" clip-rule="evenodd" d="M223 113.5H215.5V112H223V113.5Z" fill="white"/>
<path fill-rule="evenodd" clip-rule="evenodd" d="M218.5 112.75V103.75H220V112.75H218.5Z" fill="white"/>
<path d="M262 129C262 126.791 263.791 125 266 125H290C292.209 125 294 126.791 294 129V153C294 155.209 292.209 157 290 157H266C263.791 157 262 155.209 262 153V129Z" fill="#7961F2"/>
<path fill-rule="evenodd" clip-rule="evenodd" d="M269.5 131.5H281.5V136H280.5V132.5H270.5V145.5H275V146.5H269.5V131.5Z" fill="white"/>
<path fill-rule="evenodd" clip-rule="evenodd" d="M286 137H276V149H286V137ZM275 136V150H287V136H275Z" fill="white"/>
<path fill-rule="evenodd" clip-rule="evenodd" d="M280.5 146V140H281.5V146H280.5Z" fill="white"/>
<path fill-rule="evenodd" clip-rule="evenodd" d="M284 143.5H278V142.5H284V143.5Z" fill="white"/>
<rect width="462" height="18.94" transform="translate(93 176)" fill="white"/>
<path d="M96.9102 179.786C96.9102 179.066 97.4938 178.482 98.2138 178.482H109.946V191.518H98.2138C97.4938 191.518 96.9102 190.934 96.9102 190.214V179.786Z" fill="#E5EEFF"/>
<path fill-rule="evenodd" clip-rule="evenodd" d="M101.148 187.933H105.711V182.067H101.148V187.933ZM100.822 181.741V188.259H106.037V181.741H100.822ZM102.126 184.348H104.733V184.674H102.126V184.348ZM104.733 183.371H102.126V183.697H104.733V183.371ZM102.126 185.326H104.733V185.652H102.126V185.326ZM103.755 186.304H102.126V186.63H103.755V186.304Z" fill="#1A1A1A"/>
<path fill-rule="evenodd" clip-rule="evenodd" d="M114.181 182.067H115.811V184.348H114.181V182.067ZM113.855 184.674V181.741H116.137V184.674H113.855ZM117.114 182.067H118.744V184.348H117.114V182.067ZM116.789 184.674V181.741H119.07V184.674H116.789ZM115.811 185.652H114.181V187.933H115.811V185.652ZM113.855 185.326V188.259H116.137V185.326H113.855ZM117.114 185.652H118.744V187.933H117.114V185.652ZM116.789 188.259V185.326H119.07V188.259H116.789Z" fill="#1A1A1A"/>
<path d="M110.108 178.645H121.678C122.308 178.645 122.818 179.156 122.818 179.786V190.214C122.818 190.844 122.308 191.355 121.678 191.355H110.108V178.645Z" stroke="#E8E8E8" stroke-width="0.325899"/>
<path fill-rule="evenodd" clip-rule="evenodd" d="M134.064 182.067H132.109V188.259H134.064V182.067ZM134.39 182.067V188.259H137.323V182.067H134.39ZM131.783 181.741V188.585H137.649V181.741H131.783ZM133.413 182.719H132.761V183.697H133.413V182.719ZM132.435 182.393V184.023H133.739V182.393H132.435ZM133.413 184.674H132.761V185.652H133.413V184.674ZM132.435 184.348V185.978H133.739V184.348H132.435ZM132.761 186.63H133.413V187.607H132.761V186.63ZM132.435 187.933V186.304H133.739V187.933H132.435Z" fill="#1A1A1A"/>
<path d="M129.501 178.808H139.93V178.156H129.501V178.808ZM140.907 179.786V190.214H141.559V179.786H140.907ZM139.93 191.192H129.501V191.844H139.93V191.192ZM128.523 190.214V179.786H127.871V190.214H128.523ZM129.501 191.192C128.961 191.192 128.523 190.754 128.523 190.214H127.871C127.871 191.114 128.601 191.844 129.501 191.844V191.192ZM140.907 190.214C140.907 190.754 140.47 191.192 139.93 191.192V191.844C140.83 191.844 141.559 191.114 141.559 190.214H140.907ZM139.93 178.808C140.47 178.808 140.907 179.246 140.907 179.786H141.559C141.559 178.886 140.83 178.156 139.93 178.156V178.808ZM129.501 178.156C128.601 178.156 127.871 178.886 127.871 179.786H128.523C128.523 179.246 128.961 178.808 129.501 178.808V178.156Z" fill="#E8E8E8"/>
<path d="M239.266 179.786C239.266 179.066 239.849 178.482 240.569 178.482H250.998C251.718 178.482 252.302 179.066 252.302 179.786V190.214C252.302 190.934 251.718 191.518 250.998 191.518H240.569C239.849 191.518 239.266 190.934 239.266 190.214V179.786Z" fill="#E5EEFF"/>
<path fill-rule="evenodd" clip-rule="evenodd" d="M243.502 182.067L244.586 187.056L245.727 186.288L246.924 187.933L248.065 187.165L246.867 185.521L248.007 184.753L243.502 182.067Z" fill="#1A1A1A"/>
<path d="M254.908 179.786C254.908 179.066 255.492 178.482 256.212 178.482H266.641C267.361 178.482 267.944 179.066 267.944 179.786V190.214C267.944 190.934 267.361 191.518 266.641 191.518H256.212C255.492 191.518 254.908 190.934 254.908 190.214V179.786Z" fill="#F4F4F4"/>
<rect x="263.039" y="182.234" width="1.6295" height="5.21439" transform="rotate(45 263.039 182.234)" stroke="#1A1A1A" stroke-width="0.325899"/>
<rect x="262.348" y="182.811" width="1.79245" height="0.16295" transform="rotate(45 262.348 182.811)" fill="#1A1A1A" stroke="#1A1A1A" stroke-width="0.16295"/>
<rect x="263.73" y="182.004" width="0.977698" height="0.325899" transform="rotate(45 263.73 182.004)" fill="#1A1A1A" stroke="#1A1A1A" stroke-width="0.325899"/>
<path d="M258.918 187.507L259.077 187.03L259.396 187.348L258.918 187.507Z" fill="#1A1A1A" stroke="#1A1A1A" stroke-width="0.325899"/>
<path d="M259.121 186.152L259.352 185.921L260.504 187.074L260.273 187.304L258.66 187.765L259.121 186.152Z" stroke="#1A1A1A" stroke-width="0.325899"/>
<path d="M270.553 179.786C270.553 179.066 271.136 178.482 271.856 178.482H282.285C283.005 178.482 283.589 179.066 283.589 179.786V190.214C283.589 190.934 283.005 191.518 282.285 191.518H271.856C271.136 191.518 270.553 190.934 270.553 190.214V179.786Z" fill="#F4F4F4"/>
<path d="M275.306 184.75L279.218 181.836L280.236 182.854L277.322 186.766L275.306 184.75Z" stroke="#1A1A1A" stroke-width="0.325899"/>
<path d="M275.059 184.732C275.132 185.069 275.146 185.874 274.62 186.4" stroke="#1A1A1A" stroke-width="0.325899"/>
<path d="M274.598 186.378L275.695 187.476" stroke="#1A1A1A" stroke-width="0.325899"/>
<path d="M277.34 187.015C277.003 186.941 276.199 186.927 275.672 187.454" stroke="#1A1A1A" stroke-width="0.325899"/>
<path d="M274.707 186.718L275.354 187.366L275.021 187.699L274.15 187.275L274.707 186.718Z" fill="#1A1A1A" stroke="#1A1A1A" stroke-width="0.325899"/>
<path d="M286.195 179.786C286.195 179.066 286.779 178.482 287.499 178.482H297.928C298.648 178.482 299.231 179.066 299.231 179.786V190.214C299.231 190.934 298.648 191.518 297.928 191.518H287.499C286.779 191.518 286.195 190.934 286.195 190.214V179.786Z" fill="#F4F4F4"/>
<path fill-rule="evenodd" clip-rule="evenodd" d="M294.247 182.433L295.301 183.486C295.428 183.613 295.428 183.82 295.301 183.947L292.908 186.339L291.394 184.825L293.786 182.433C293.913 182.305 294.12 182.305 294.247 182.433ZM293.556 182.202C293.81 181.948 294.223 181.948 294.478 182.202L295.531 183.256C295.786 183.51 295.786 183.923 295.531 184.177L291.844 187.865C291.589 188.119 291.177 188.119 290.922 187.865L289.869 186.811C289.614 186.557 289.614 186.144 289.869 185.889L293.556 182.202Z" fill="#1A1A1A"/>
<rect width="0.325899" height="13.036" transform="translate(301.838 178.482)" fill="#E8E8E8"/>
<rect x="304.771" y="178.482" width="13.036" height="13.036" rx="1.3036" fill="#F4F4F4"/>
<path d="M310.448 187.067V181.693H308.633V181.051H313.034V181.693H311.219V187.067H310.448Z" fill="#1A1A1A"/>
<path d="M320.414 179.786C320.414 179.066 320.998 178.482 321.718 178.482H332.146C332.866 178.482 333.45 179.066 333.45 179.786V190.214C333.45 190.934 332.866 191.518 332.146 191.518H321.718C320.998 191.518 320.414 190.934 320.414 190.214V179.786Z" fill="#F4F4F4"/>
<path d="M323.672 183.371C323.672 183.011 323.964 182.719 324.324 182.719H326.931V187.281H324.324C323.964 187.281 323.672 186.99 323.672 186.63V183.371Z" fill="#1A1A1A"/>
<path d="M325.06 185.335L324.97 185.648H325.623L325.533 185.335C325.491 185.2 325.451 185.06 325.412 184.917C325.375 184.773 325.339 184.631 325.302 184.491H325.287C325.25 184.634 325.214 184.777 325.177 184.921C325.141 185.062 325.102 185.2 325.06 185.335ZM324.203 186.696L325.036 184.139H325.568L326.401 186.696H325.924L325.725 186.004H324.864L324.665 186.696H324.203Z" fill="white"/>
<path d="M329.165 186.743C329.077 186.743 328.987 186.722 328.895 186.681C328.807 186.636 328.722 186.574 328.641 186.493H328.629L328.59 186.696H328.234V183.935H328.684V184.647L328.672 184.968C328.753 184.897 328.841 184.84 328.935 184.796C329.031 184.751 329.129 184.729 329.228 184.729C329.348 184.729 329.455 184.753 329.548 184.8C329.642 184.844 329.722 184.909 329.787 184.995C329.852 185.079 329.902 185.18 329.936 185.3C329.97 185.42 329.987 185.554 329.987 185.703C329.987 185.867 329.963 186.015 329.916 186.145C329.872 186.273 329.812 186.381 329.736 186.469C329.661 186.558 329.573 186.626 329.474 186.673C329.375 186.72 329.272 186.743 329.165 186.743ZM329.071 186.372C329.199 186.372 329.306 186.317 329.392 186.207C329.478 186.095 329.521 185.93 329.521 185.711C329.521 185.518 329.489 185.368 329.423 185.261C329.358 185.154 329.253 185.101 329.107 185.101C328.971 185.101 328.83 185.172 328.684 185.316V186.211C328.752 186.271 328.818 186.313 328.884 186.336C328.951 186.36 329.014 186.372 329.071 186.372Z" fill="#1A1A1A"/>
<path fill-rule="evenodd" clip-rule="evenodd" d="M327.583 181.741H328.235V182.067H327.583V187.933H328.235V188.259L327.583 188.259H327.257L326.605 188.259V187.933H327.257V182.067H326.605V181.741H327.257H327.583Z" fill="#1A1A1A"/>
<path d="M336.059 179.786C336.059 179.066 336.642 178.482 337.362 178.482H354.309C355.029 178.482 355.613 179.066 355.613 179.786V190.214C355.613 190.934 355.029 191.518 354.309 191.518H337.362C336.642 191.518 336.059 190.934 336.059 190.214V179.786Z" fill="#F4F4F4"/>
<path fill-rule="evenodd" clip-rule="evenodd" d="M345.183 182.393H339.968V187.607H345.183V182.393ZM339.643 182.067V187.933H345.509V182.067H339.643Z" fill="#1A1A1A"/>
<path fill-rule="evenodd" clip-rule="evenodd" d="M348.77 184.348H352.029L350.399 185.978L348.77 184.348Z" fill="#1A1A1A"/>
<path d="M358.219 179.786C358.219 179.066 358.802 178.482 359.522 178.482H376.469C377.189 178.482 377.773 179.066 377.773 179.786V190.214C377.773 190.934 377.189 191.518 376.469 191.518H359.522C358.802 191.518 358.219 190.934 358.219 190.214V179.786Z" fill="#F4F4F4"/>
<path d="M367.496 182.402C367.496 182.312 367.423 182.239 367.333 182.239H365.867C365.777 182.239 365.704 182.312 365.704 182.402C365.704 182.492 365.777 182.565 365.867 182.565H367.17V183.869C367.17 183.959 367.243 184.032 367.333 184.032C367.423 184.032 367.496 183.959 367.496 183.869V182.402ZM361.918 188.048L367.449 182.518L367.218 182.287L361.688 187.818L361.918 188.048Z" fill="#1A1A1A"/>
<path fill-rule="evenodd" clip-rule="evenodd" d="M370.93 184.348H374.189L372.559 185.978L370.93 184.348Z" fill="#1A1A1A"/>
<path d="M380.381 179.786C380.381 179.066 380.964 178.482 381.684 178.482H392.113C392.833 178.482 393.417 179.066 393.417 179.786V190.214C393.417 190.934 392.833 191.518 392.113 191.518H381.684C380.964 191.518 380.381 190.934 380.381 190.214V179.786Z" fill="#F4F4F4"/>
<path fill-rule="evenodd" clip-rule="evenodd" d="M389.505 182.393V187.607H384.291V182.393H389.505ZM385.761 185.091L384.617 185.896V187.281H389.18V186.848L387.975 185.748L387.027 186.397L385.761 185.091ZM389.18 182.718H384.617V185.505L385.799 184.674L387.068 185.982L388.003 185.342L389.18 186.416V182.718ZM388.202 183.37C388.562 183.37 388.854 183.662 388.854 184.022C388.854 184.382 388.562 184.674 388.202 184.674C387.842 184.674 387.55 184.382 387.55 184.022C387.55 183.662 387.842 183.37 388.202 183.37Z" fill="#1A1A1A"/>
<path d="M396.023 179.786C396.023 179.066 396.607 178.482 397.327 178.482H407.756C408.476 178.482 409.059 179.066 409.059 179.786V190.214C409.059 190.934 408.476 191.518 407.756 191.518H397.327C396.607 191.518 396.023 190.934 396.023 190.214V179.786Z" fill="#F4F4F4"/>
<path fill-rule="evenodd" clip-rule="evenodd" d="M404.035 182.434C404.236 183.258 403.851 183.897 402.913 184.35C402.848 184.615 402.78 184.904 402.709 185.217C402.804 185.171 402.905 185.125 403.013 185.079C403.154 185.018 403.226 184.989 403.57 184.849C404.037 184.659 404.323 184.656 404.294 184.987C404.282 185.125 404.194 185.264 403.961 185.574C403.951 185.586 403.951 185.586 403.942 185.599C403.841 185.732 403.842 185.731 403.809 185.776C403.729 185.886 403.649 185.993 403.57 186.098C403.708 186.017 403.869 185.921 404.054 185.808C404.496 185.537 404.831 185.4 405.076 185.4C405.383 185.4 405.548 185.61 405.54 185.95L405.214 185.943C405.218 185.772 405.182 185.726 405.076 185.726C404.908 185.726 404.618 185.845 404.224 186.086C403.802 186.344 403.5 186.519 403.315 186.613C403.21 186.667 403.14 186.697 403.087 186.705C402.988 186.721 402.88 186.683 402.875 186.542C402.873 186.48 402.894 186.443 402.931 186.397C403.128 186.145 403.334 185.874 403.546 185.583C403.577 185.541 403.579 185.538 403.656 185.436L403.701 185.377C403.801 185.245 403.872 185.143 403.916 185.072C403.857 185.088 403.783 185.114 403.693 185.151C403.351 185.289 403.28 185.318 403.142 185.378C402.944 185.464 402.772 185.546 402.618 185.631C402.611 185.66 402.605 185.689 402.599 185.718C402.481 186.2 402.357 186.612 402.225 186.955L405.474 186.955V187.281L402.089 187.281C401.844 187.811 401.572 188.12 401.264 188.21C401.031 188.279 400.84 188.226 400.747 188.048C400.676 187.913 400.678 187.727 400.734 187.502C400.751 187.432 400.774 187.358 400.802 187.281L399.607 187.281V186.955L400.942 186.955C401.069 186.699 401.234 186.441 401.414 186.222C401.468 186.157 401.522 186.095 401.577 186.037C401.811 185.784 402.045 185.593 402.33 185.421C402.402 185.094 402.471 184.791 402.539 184.511C402.19 184.643 401.783 184.756 401.32 184.849L401.256 184.529C401.808 184.418 402.267 184.283 402.634 184.123C402.834 183.327 403.013 182.753 403.172 182.399C403.471 181.731 403.864 181.735 404.035 182.434ZM401.726 187.281L401.152 187.281C401.108 187.386 401.073 187.488 401.05 187.581C401.012 187.736 401.011 187.849 401.036 187.897C401.047 187.919 401.075 187.926 401.172 187.898C401.357 187.843 401.544 187.638 401.726 187.281ZM402.219 185.889C402.077 185.997 401.947 186.117 401.816 186.259C401.765 186.313 401.715 186.37 401.665 186.43C401.535 186.588 401.412 186.77 401.31 186.955L401.874 186.956C401.993 186.666 402.108 186.31 402.219 185.889ZM400.694 185L400.911 185.217L400.476 185.652L400.911 186.086L400.694 186.303L400.259 185.869L399.825 186.303L399.607 186.086L400.042 185.652L399.607 185.217L399.825 185L400.259 185.434L400.694 185ZM403.469 182.533C403.338 182.826 403.188 183.29 403.021 183.926C403.633 183.557 403.859 183.085 403.718 182.511C403.626 182.132 403.648 182.132 403.469 182.533Z" fill="#1A1A1A"/>
<path fill-rule="evenodd" clip-rule="evenodd" d="M512.307 185.081L512.074 185.326L510.678 183.859L512.074 182.393L512.307 182.637L511.299 183.696L513.937 183.696C515.017 183.696 515.892 184.572 515.892 185.652C515.892 186.732 515.017 187.607 513.937 187.607H512.307V187.281H513.937C514.837 187.281 515.566 186.552 515.566 185.652C515.566 184.752 514.837 184.022 513.937 184.022L511.298 184.022L512.307 185.081Z" fill="#1A1A1A"/>
<path d="M508.071 178.808H518.5V178.156H508.071V178.808ZM519.478 179.786V190.214H520.129V179.786H519.478ZM518.5 191.192H508.071V191.844H518.5V191.192ZM507.093 190.214V179.786H506.442V190.214H507.093ZM508.071 191.192C507.531 191.192 507.093 190.754 507.093 190.214H506.442C506.442 191.114 507.171 191.844 508.071 191.844V191.192ZM519.478 190.214C519.478 190.754 519.04 191.192 518.5 191.192V191.844C519.4 191.844 520.129 191.114 520.129 190.214H519.478ZM518.5 178.808C519.04 178.808 519.478 179.246 519.478 179.786H520.129C520.129 178.886 519.4 178.156 518.5 178.156V178.808ZM508.071 178.156C507.171 178.156 506.442 178.886 506.442 179.786H507.093C507.093 179.246 507.531 178.808 508.071 178.808V178.156Z" fill="#E8E8E8"/>
<path fill-rule="evenodd" clip-rule="evenodd" d="M530.914 184.022H528.276C527.376 184.022 526.646 184.752 526.646 185.652C526.646 186.552 527.376 187.281 528.276 187.281H529.905V187.607H528.276C527.196 187.607 526.32 186.732 526.32 185.652C526.32 184.572 527.196 183.696 528.276 183.696H530.914L529.905 182.637L530.138 182.393L531.535 183.859L530.138 185.326L529.905 185.081L530.914 184.022Z" fill="#1A1A1A"/>
<path d="M523.714 178.808H534.143V178.156H523.714V178.808ZM535.12 179.786V190.214H535.772V179.786H535.12ZM534.143 191.192H523.714V191.844H534.143V191.192ZM522.736 190.214V179.786H522.084V190.214H522.736ZM523.714 191.192C523.174 191.192 522.736 190.754 522.736 190.214H522.084C522.084 191.114 522.814 191.844 523.714 191.844V191.192ZM535.12 190.214C535.12 190.754 534.683 191.192 534.143 191.192V191.844C535.042 191.844 535.772 191.114 535.772 190.214H535.12ZM534.143 178.808C534.683 178.808 535.12 179.246 535.12 179.786H535.772C535.772 178.886 535.042 178.156 534.143 178.156V178.808ZM523.714 178.156C522.814 178.156 522.084 178.886 522.084 179.786H522.736C522.736 179.246 523.174 178.808 523.714 178.808V178.156Z" fill="#E8E8E8"/>
<path fill-rule="evenodd" clip-rule="evenodd" d="M545.83 186.002L547.505 187.676L547.248 187.933L545.574 186.259C545.157 186.617 544.615 186.833 544.022 186.833C542.706 186.833 541.639 185.766 541.639 184.45C541.639 183.134 542.706 182.067 544.022 182.067C545.338 182.067 546.405 183.134 546.405 184.45C546.405 185.043 546.189 185.585 545.83 186.002ZM544.022 186.467C545.135 186.467 546.038 185.564 546.038 184.45C546.038 183.336 545.135 182.434 544.022 182.434C542.908 182.434 542.005 183.336 542.005 184.45C542.005 185.564 542.908 186.467 544.022 186.467Z" fill="#1A1A1A"/>
<path d="M539.358 178.808H549.787V178.156H539.358V178.808ZM550.765 179.786V190.214H551.417V179.786H550.765ZM549.787 191.192H539.358V191.844H549.787V191.192ZM538.381 190.214V179.786H537.729V190.214H538.381ZM539.358 191.192C538.818 191.192 538.381 190.754 538.381 190.214H537.729C537.729 191.114 538.458 191.844 539.358 191.844V191.192ZM550.765 190.214C550.765 190.754 550.327 191.192 549.787 191.192V191.844C550.687 191.844 551.417 191.114 551.417 190.214H550.765ZM549.787 178.808C550.327 178.808 550.765 179.246 550.765 179.786H551.417C551.417 178.886 550.687 178.156 549.787 178.156V178.808ZM539.358 178.156C538.458 178.156 537.729 178.886 537.729 179.786H538.381C538.381 179.246 538.818 178.808 539.358 178.808V178.156Z" fill="#E8E8E8"/>
<filter id="filter0_d_2801_80308" x="156.449" y="430.017" width="24.6412" height="26.6417" filterUnits="userSpaceOnUse" color-interpolation-filters="sRGB">
<feFlood flood-opacity="0" result="BackgroundImageFix"/>
<feColorMatrix in="SourceAlpha" type="matrix" values="0 0 0 0 0 0 0 0 0 0 0 0 0 0 0 0 0 0 127 0" result="hardAlpha"/>
<feOffset dy="0.879648"/>
<feGaussianBlur stdDeviation="1.31947"/>
<feColorMatrix type="matrix" values="0 0 0 0 0 0 0 0 0 0 0 0 0 0 0 0 0 0 0.2 0"/>
<feBlend mode="normal" in2="BackgroundImageFix" result="effect1_dropShadow_2801_80308"/>
<feBlend mode="normal" in="SourceGraphic" in2="effect1_dropShadow_2801_80308" result="shape"/>
</filter>
<filter id="filter1_d_2801_80308" x="137.48" y="229.47" width="364.796" height="235.771" filterUnits="userSpaceOnUse" color-interpolation-filters="sRGB">
<feFlood flood-opacity="0" result="BackgroundImageFix"/>
<feColorMatrix in="SourceAlpha" type="matrix" values="0 0 0 0 0 0 0 0 0 0 0 0 0 0 0 0 0 0 127 0" result="hardAlpha"/>
<feOffset/>
<feGaussianBlur stdDeviation="0.464116"/>
<feColorMatrix type="matrix" values="0 0 0 0 0.101961 0 0 0 0 0.101961 0 0 0 0 0.101961 0 0 0 0.2 0"/>
<feBlend mode="normal" in2="BackgroundImageFix" result="effect1_dropShadow_2801_80308"/>
<feBlend mode="normal" in="SourceGraphic" in2="effect1_dropShadow_2801_80308" result="shape"/>
</filter>
<filter id="filter2_d_2801_80308" x="92.3482" y="175.348" width="463.304" height="20.2435" filterUnits="userSpaceOnUse" color-interpolation-filters="sRGB">
<feFlood flood-opacity="0" result="BackgroundImageFix"/>
<feColorMatrix in="SourceAlpha" type="matrix" values="0 0 0 0 0 0 0 0 0 0 0 0 0 0 0 0 0 0 127 0" result="hardAlpha"/>
<feOffset/>
<feGaussianBlur stdDeviation="0.325899"/>
<feColorMatrix type="matrix" values="0 0 0 0 0.101961 0 0 0 0 0.101961 0 0 0 0 0.101961 0 0 0 0.2 0"/>
<feBlend mode="normal" in2="BackgroundImageFix" result="effect1_dropShadow_2801_80308"/>
<feBlend mode="normal" in="SourceGraphic" in2="effect1_dropShadow_2801_80308" result="shape"/>
</filter>
<clipPath id="clip0_2801_80308">
<rect width="44.3223" height="13.036" fill="white" transform="translate(506.768 178.482)"/>
</clipPath>
</svg>
