<svg viewBox="0 0 24 24" fill="none" xmlns="http://www.w3.org/2000/svg"><path fill-rule="evenodd" clip-rule="evenodd" fill="currentColor" d="M4 5.125C4 4.50368 4.50368 4 5.125 4H6.875C7.49632 4 8 4.50368 8 5.125V6.875C8 7.49632 7.49632 8 6.875 8H5.125C4.50368 8 4 7.49632 4 6.875V5.125ZM10 5.125C10 4.50368 10.5037 4 11.125 4H12.875C13.4963 4 14 4.50368 14 5.125V6.875C14 7.49632 13.4963 8 12.875 8H11.125C10.5037 8 10 7.49632 10 6.875V5.125ZM17.25 4C16.5596 4 16 4.55964 16 5.25V6.75C16 7.44036 16.5596 8 17.25 8H18.75C19.4404 8 20 7.44036 20 6.75V5.25C20 4.55964 19.4404 4 18.75 4H17.25ZM16 11.125C16 10.5037 16.5037 10 17.125 10H18.875C19.4963 10 20 10.5037 20 11.125V12.875C20 13.4963 19.4963 14 18.875 14H17.125C16.5037 14 16 13.4963 16 12.875V11.125ZM17.125 16C16.5037 16 16 16.5037 16 17.125V18.875C16 19.4963 16.5037 20 17.125 20H18.875C19.4963 20 20 19.4963 20 18.875V17.125C20 16.5037 19.4963 16 18.875 16H17.125ZM10 11.125C10 10.5037 10.5037 10 11.125 10H12.875C13.4963 10 14 10.5037 14 11.125V12.875C14 13.4963 13.4963 14 12.875 14H11.125C10.5037 14 10 13.4963 10 12.875V11.125ZM11.125 16C10.5037 16 10 16.5037 10 17.125V18.875C10 19.4963 10.5037 20 11.125 20H12.875C13.4963 20 14 19.4963 14 18.875V17.125C14 16.5037 13.4963 16 12.875 16H11.125ZM4 11.125C4 10.5037 4.50368 10 5.125 10H6.875C7.49632 10 8 10.5037 8 11.125V12.875C8 13.4963 7.49632 14 6.875 14H5.125C4.50368 14 4 13.4963 4 12.875V11.125ZM5.125 16C4.50368 16 4 16.5037 4 17.125V18.875C4 19.4963 4.50368 20 5.125 20H6.875C7.49632 20 8 19.4963 8 18.875V17.125C8 16.5037 7.49632 16 6.875 16H5.125Z"></path></svg>