<svg xmlns="http://www.w3.org/2000/svg" width="69" height="51" viewBox="0 0 69 51" class="dropzone-content__image"><defs><linearGradient id="icon-drop-folder_svg__a" x1="34.5" x2="34.5" y1="48.67" y2="0.19" gradientUnits="userSpaceOnUse"><stop offset="0.67" stop-color="#112caf"></stop><stop offset="0.77" stop-color="#2250f4"></stop></linearGradient></defs><path fill="url(#icon-drop-folder_svg__a)" d="M62.93 6.8H37.11L29.84.19H6.07a3.53 3.53 0 0 0-3.53 3.53v41.42a3.53 3.53 0 0 0 3.53 3.53h56.86a3.53 3.53 0 0 0 3.53-3.53V10.33a3.53 3.53 0 0 0-3.53-3.53Z"></path><path fill="#ffdd73" d="M6.83 12.56h53.01V35.1H6.83z"></path><path fill="#fff6d0" d="M10.27 9.83h53.01v22.54H10.27z"></path><path fill="#a6bffd" d="M63.17 50.81H5.83a3.46 3.46 0 0 1-3.5-3.06l-2.07-29a3.25 3.25 0 0 1 3.29-3.51h61.9a3.25 3.25 0 0 1 3.29 3.51l-2.07 29a3.46 3.46 0 0 1-3.5 3.06Z"></path></svg>